<svg width="200" height="200" viewBox="0 0 200 200" xmlns="http://www.w3.org/2000/svg">
  <!-- Background circle -->
  <circle cx="100" cy="100" r="90" fill="#1a73e8" />
  
  <!-- Letter G -->
  <path d="M 100 40 C 70 40 45 65 45 100 C 45 135 70 160 100 160 C 120 160 137 150 147 135 L 147 110 L 100 110 L 100 90 L 170 90 L 170 140 C 155 165 130 180 100 180 C 60 180 25 145 25 100 C 25 55 60 20 100 20 C 125 20 147 30 162 48 L 145 65 C 135 52 118 40 100 40 Z" fill="white" />
  
  <!-- Decorative dot -->
  <circle cx="155" cy="155" r="8" fill="#34a853" />
</svg>